<!-- Generator: Adobe Illustrator 25.2.0, SVG Export Plug-In  -->
<svg version="1.1" xmlns="http://www.w3.org/2000/svg" xmlns:xlink="http://www.w3.org/1999/xlink" x="0px" y="0px" width="64.3px"
	 height="64.9px" viewBox="0 0 64.3 64.9" style="overflow:visible;enable-background:new 0 0 64.3 64.9;" xml:space="preserve">
<style type="text/css">
	.st0{fill:#0653B6;}
</style>
<defs>
</defs>
<path class="st0" d="M44.5,58v-7.5c-1.8-1.5-4.3-4.2-7.7-8.7c1.4-1.7,2.3-3.8,2.3-6.2c0-0.2,0-0.4-0.1-0.6c2.1-0.6,3.8-1.1,5.4-1.5
	v-5.7c-1.8,0.8-4.1,1.7-6.9,2.7c-1.3-2.1-3.4-3.6-5.8-4.2c0.1-6.4,0.6-10.4,1.4-12.5c2.1,0.4,4.1,1,5.9,1.9
	c-0.5-1.5-0.8-3.1-0.8-4.7c0-1,0.1-2.1,0.3-3.1c-2.9-1-6-1.5-9.3-1.5C13.2,6.3,0,19.4,0,35.6c0,16.2,13.2,29.3,29.3,29.3
	c5.7,0,11-1.7,15.5-4.5C44.6,59.7,44.5,58.9,44.5,58 M25.5,13.7c0.8,2.1,1.3,6,1.4,12.5c-2.5,0.6-4.5,2.2-5.8,4.2
	c-6.1-2.1-9.7-3.8-11.4-5.2C12.8,19.2,18.6,14.9,25.5,13.7 M13.3,51.1C9.4,47.1,7,41.6,7,35.6c0-1.1,0.1-2.1,0.2-3.2
	c2.3-0.1,6.1,0.6,12.3,2.5c0,0.2-0.1,0.4-0.1,0.6c0,2.4,0.9,4.5,2.3,6.2C17.9,47,15.3,49.9,13.3,51.1 M29.3,57.9
	c-3.5,0-6.8-0.8-9.8-2.3c0.6-2.2,2.5-5.6,6.2-10.9c1.1,0.4,2.3,0.7,3.6,0.7c1.3,0,2.5-0.3,3.6-0.7c3.7,5.3,5.6,8.7,6.2,10.9
	C36.2,57,32.8,57.9,29.3,57.9"/>
<path class="st0" d="M50.3,6.3l5.1-5.1L54.2,0c-3.1-0.2-6.2,0.8-8.5,3.1c-4.3,4.3-4.3,11.2,0,15.5c0.9,0.9,1.9,1.5,3,2.1V58
	c0,2.6,2.1,4.8,4.8,4.8c1.3,0,2.5-0.5,3.4-1.4s1.4-2.1,1.4-3.4V20.7c1.1-0.5,2.1-1.2,3-2.1c2.3-2.3,3.3-5.5,3.1-8.5L63.1,9L58,14.1
	c-0.7,0.7-1.8,1-2.9,0.8c-3-0.8-4.9-2.7-5.7-5.7C49.2,8.1,49.5,7.1,50.3,6.3"/>
</svg>
