<!-- Generator: Adobe Illustrator 25.2.0, SVG Export Plug-In  -->
<svg version="1.1" xmlns="http://www.w3.org/2000/svg" xmlns:xlink="http://www.w3.org/1999/xlink" x="0px" y="0px" width="51.4px"
	 height="61.5px" viewBox="0 0 51.4 61.5" style="overflow:visible;enable-background:new 0 0 51.4 61.5;" xml:space="preserve">
<style type="text/css">
	.st0{fill:#0653B6;}
</style>
<defs>
</defs>
<path class="st0" d="M47.7,45h-1.8H32.1c9.6-2.8,16.6-11.6,16.6-22C48.6,10.3,38.4,0,25.7,0C13,0,2.8,10.3,2.8,22.9
	c0,10.4,7,19.3,16.6,22H5.5H3.7H0v16.5h5.5v-11h40.4v11h5.5V45H47.7z M42.9,20.5c0.1,0.8,0.2,1.6,0.2,2.5c0,4.7-1.9,9-4.9,12.1
	c-1.6-1-3.9-3.6-7.4-8.3c0.8-1.1,1.3-2.4,1.3-3.9c0,0,0-0.1,0-0.1C37.6,21.1,41,20.4,42.9,20.5 M41.1,14.8
	c-1.5,1.2-4.7,2.6-10.1,4.5c-0.8-1.2-2-2-3.4-2.5c0.1-5.8,0.4-9.2,1.1-11C34.1,6.7,38.6,10.1,41.1,14.8 M22.7,5.8
	c0.7,1.8,1,5.3,1.1,11c-1.4,0.4-2.6,1.3-3.4,2.5c-5.5-1.9-8.6-3.3-10.1-4.5C12.8,10.1,17.3,6.7,22.7,5.8 M13.2,35.1
	c-3-3.1-4.9-7.4-4.9-12.1c0-0.8,0.1-1.7,0.2-2.5c1.9-0.1,5.3,0.6,10.8,2.4c0,0,0,0.1,0,0.1c0,1.5,0.5,2.8,1.3,3.9
	C17.1,31.4,14.8,34,13.2,35.1 M18,38.6c0.5-1.9,2.2-4.9,5.6-9.6c0.7,0.2,1.4,0.4,2.1,0.4s1.4-0.2,2.1-0.4c3.3,4.7,5.1,7.7,5.6,9.6
	c-2.3,1.1-4.9,1.8-7.7,1.8C22.9,40.4,20.3,39.7,18,38.6"/>
</svg>
